<?xml version="1.0" encoding="UTF-8" standalone="no"?>
<svg
   xmlns:dc="http://purl.org/dc/elements/1.1/"
   xmlns:cc="http://creativecommons.org/ns#"
   xmlns:rdf="http://www.w3.org/1999/02/22-rdf-syntax-ns#"
   xmlns:svg="http://www.w3.org/2000/svg"
   xmlns="http://www.w3.org/2000/svg"
   shape-rendering="crispEdges"
   xml:space="preserve"
   style="enable-background:new 0 0 612 612;"
   viewBox="0 0 612 612"
   height="612px"
   width="612px"
   y="0px"
   x="0px"
   id="Capa_1"
   version="1.1"><metadata
     id="metadata3548"><rdf:RDF><cc:Work
         rdf:about=""><dc:format>image/svg+xml</dc:format><dc:type
           rdf:resource="http://purl.org/dc/dcmitype/StillImage" /><dc:title></dc:title></cc:Work></rdf:RDF></metadata><defs
     id="defs3546" /><g
     id="g3514" /><g
     id="g3516" /><g
     id="g3518" /><g
     id="g3520" /><g
     id="g3522" /><g
     id="g3524" /><g
     id="g3526" /><g
     id="g3528" /><g
     id="g3530" /><g
     id="g3532" /><g
     id="g3534" /><g
     id="g3536" /><g
     id="g3538" /><g
     id="g3540" /><g
     id="g3542" /><rect
     y="275.74905"
     x="132.54755"
     height="60.5019"
     width="346.90491"
     id="rect4275"
     style="opacity:1;fill:#000000;fill-opacity:1;fill-rule:nonzero" /><path
     transform="matrix(0,-1.252946,0.88892791,0,-17.819603,463.44243)"
     d="m 211.74617,169.15562 -86.08838,0 -86.088377,0 43.044189,-74.554724 43.044188,-74.554723 43.04419,74.554721 z"
     id="path4289"
     style="opacity:1;fill:#000000;fill-opacity:1;fill-rule:nonzero" /><path
     transform="matrix(0,1.252946,-0.88892791,0,629.8196,148.55757)"
     d="m 211.74617,169.15562 -86.08838,0 -86.088377,0 43.044189,-74.554724 43.044188,-74.554723 43.04419,74.554721 z"
     id="path4289-3"
     style="opacity:1;fill:#000000;fill-opacity:1;fill-rule:nonzero" /><g
     transform="matrix(0,-1,1,0,6.593155,838.10646)"
     id="g4327"><rect
       style="opacity:1;fill:#000000;fill-opacity:1;fill-rule:nonzero"
       id="rect4275-6"
       width="346.90491"
       height="60.5019"
       x="358.65402"
       y="269.15588" /><path
       style="opacity:1;fill:#000000;fill-opacity:1;fill-rule:nonzero"
       id="path4289-7"
       d="m 211.74617,169.15562 -86.08838,0 -86.088377,0 43.044189,-74.554724 43.044188,-74.554723 43.04419,74.554721 z"
       transform="matrix(0,-1.252946,0.88892791,0,208.28686,456.84927)" /><path
       style="opacity:1;fill:#000000;fill-opacity:1;fill-rule:nonzero"
       id="path4289-3-5"
       d="m 211.74617,169.15562 -86.08838,0 -86.088377,0 43.044189,-74.554724 43.044188,-74.554723 43.04419,74.554721 z"
       transform="matrix(0,1.252946,-0.88892791,0,855.92607,141.96442)" /></g></svg>